<?xml version="1.0" encoding="utf-8"?>
<!-- Generator: Adobe Illustrator 16.0.0, SVG Export Plug-In . SVG Version: 6.00 Build 0)  -->
<!DOCTYPE svg PUBLIC "-//W3C//DTD SVG 1.1//EN" "http://www.w3.org/Graphics/SVG/1.1/DTD/svg11.dtd">
<svg version="1.1" xmlns="http://www.w3.org/2000/svg" xmlns:xlink="http://www.w3.org/1999/xlink" x="0px" y="0px" width="100px"
	 height="100px" viewBox="0 0 100 100" enable-background="new 0 0 100 100" xml:space="preserve">
<g id="_x31_3" display="none">
	<g display="inline">
		<path fill="#F5F5F5" d="M38.61,12.257V88.6h-19.05V47.67c0-5.91-0.142-9.461-0.424-10.657c-0.283-1.194-1.062-2.098-2.335-2.711
			c-1.272-0.613-4.11-0.919-8.511-0.919H6.404v-8.9c9.211-1.982,16.205-6.057,20.984-12.225H38.61z"/>
		<path fill="#F5F5F5" d="M81.804,45.336c2.893,0.976,5.046,2.571,6.46,4.789c1.415,2.218,2.122,7.415,2.122,15.593
			c0,6.07-0.691,10.78-2.074,14.13c-1.384,3.35-3.772,5.896-7.168,7.643c-3.395,1.745-7.749,2.618-13.062,2.618
			c-6.035,0-10.774-1.014-14.217-3.041c-3.442-2.028-5.705-4.511-6.79-7.45s-1.627-8.04-1.627-15.302v-6.036h19.051v12.401
			c0,3.301,0.195,5.399,0.589,6.296c0.393,0.896,1.266,1.344,2.617,1.344c1.478,0,2.452-0.566,2.924-1.698
			c0.472-1.131,0.707-4.086,0.707-8.864v-5.281c0-2.924-0.33-5.062-0.99-6.413s-1.635-2.24-2.924-2.664
			c-1.289-0.425-3.788-0.668-7.497-0.731V41.587c4.526,0,7.324-0.172,8.394-0.519c1.068-0.345,1.839-1.1,2.311-2.263
			c0.472-1.163,0.707-2.986,0.707-5.47v-4.244c0-2.671-0.275-4.433-0.825-5.281c-0.551-0.849-1.407-1.273-2.57-1.273
			c-1.32,0-2.224,0.448-2.711,1.344c-0.488,0.896-0.73,2.806-0.73,5.729v6.271H45.448v-6.507c0-7.293,1.666-12.22,4.998-14.783
			c3.332-2.562,8.63-3.843,15.892-3.843c9.084,0,15.246,1.775,18.484,5.325c3.237,3.55,4.856,8.482,4.856,14.796
			c0,4.272-0.582,7.359-1.745,9.26C86.771,42.029,84.728,43.766,81.804,45.336z"/>
	</g>
</g>
<g id="_x31_">
	<g>
		<path fill="#F5F5F5" d="M63.191,12.257V88.6h-19.05V47.67c0-5.91-0.142-9.461-0.424-10.657c-0.283-1.194-1.062-2.098-2.335-2.711
			c-1.272-0.613-4.11-0.919-8.511-0.919h-1.887v-8.9C40.196,22.5,47.19,18.425,51.97,12.257H63.191z"/>
	</g>
</g>
<g id="_x32_1" display="none">
	<text transform="matrix(1 0 0 1 6.4629 88.5996)" display="inline" fill="#F5F5F5" font-family="'Impact'" font-size="96.5712">21</text>
</g>
<g id="_x32_" display="none">
	<text transform="matrix(1 0 0 1 25.0029 88.5996)" display="inline" fill="#F5F5F5" font-family="'Impact'" font-size="96.5712">2</text>
</g>
</svg>
