<?xml version="1.0" encoding="utf-8"?>
<!-- Generator: Adobe Illustrator 16.0.0, SVG Export Plug-In . SVG Version: 6.00 Build 0)  -->
<!DOCTYPE svg PUBLIC "-//W3C//DTD SVG 1.1//EN" "http://www.w3.org/Graphics/SVG/1.1/DTD/svg11.dtd">
<svg version="1.1" id="_x32_" xmlns="http://www.w3.org/2000/svg" xmlns:xlink="http://www.w3.org/1999/xlink" x="0px" y="0px"
	 width="100px" height="100px" viewBox="0 0 100 100" enable-background="new 0 0 100 100" xml:space="preserve">
<text transform="matrix(1 0 0 1 138.5 50)" fill="#F5F5F5" font-family="'Impact'" font-size="96.5712">32</text>
<g>
	<path fill="#F5F5F5" d="M39.932,11.829v76.342H20.883v-40.93c0-5.91-0.143-9.461-0.424-10.657
		c-0.283-1.194-1.063-2.098-2.336-2.711c-1.271-0.613-4.109-0.919-8.51-0.919H7.727v-8.9c9.211-1.982,16.205-6.057,20.984-12.225
		H39.932z"/>
	<path fill="#F5F5F5" d="M92.273,37.669v25.463c0,5.785-0.314,9.997-0.943,12.638s-1.934,5.108-3.914,7.403
		s-4.369,3.945-7.166,4.951c-2.799,1.006-5.926,1.509-9.385,1.509c-4.559,0-8.346-0.527-11.363-1.58s-5.424-2.695-7.215-4.928
		c-1.791-2.231-3.064-4.581-3.82-7.049c-0.754-2.468-1.131-6.39-1.131-11.766V37.669c0-7.01,0.605-12.26,1.816-15.75
		c1.209-3.489,3.613-6.287,7.213-8.393c3.6-2.106,7.961-3.159,13.086-3.159c4.18,0,7.922,0.73,11.223,2.192s5.768,3.246,7.402,5.352
		c1.635,2.106,2.742,4.479,3.324,7.12S92.273,31.885,92.273,37.669z M73.223,31.256c0-4.056-0.195-6.594-0.588-7.616
		c-0.395-1.021-1.314-1.532-2.76-1.532c-1.414,0-2.35,0.542-2.805,1.626c-0.457,1.085-0.684,3.592-0.684,7.521v37.251
		c0,4.433,0.211,7.104,0.637,8.016c0.424,0.912,1.344,1.368,2.758,1.368s2.342-0.534,2.781-1.604c0.441-1.068,0.66-3.474,0.66-7.215
		V31.256z"/>
</g>
</svg>
