<?xml version="1.0" encoding="utf-8"?>
<!-- Generator: Adobe Illustrator 16.0.0, SVG Export Plug-In . SVG Version: 6.00 Build 0)  -->
<!DOCTYPE svg PUBLIC "-//W3C//DTD SVG 1.1//EN" "http://www.w3.org/Graphics/SVG/1.1/DTD/svg11.dtd">
<svg version="1.1" id="_x32_" xmlns="http://www.w3.org/2000/svg" xmlns:xlink="http://www.w3.org/1999/xlink" x="0px" y="0px"
	 width="100px" height="100px" viewBox="0 0 100 100" enable-background="new 0 0 100 100" xml:space="preserve">
<text transform="matrix(1 0 0 1 138.5 50)" fill="#F5F5F5" font-family="'Impact'" font-size="96.5712">32</text>
<g>
	<path fill="#F5F5F5" d="M47.713,11.829v76.342h-19.05v-40.93c0-5.909-0.142-9.461-0.424-10.656
		c-0.283-1.194-1.062-2.099-2.335-2.712c-1.272-0.612-4.11-0.919-8.511-0.919h-1.887v-8.9c9.211-1.982,16.205-6.058,20.984-12.225
		H47.713z"/>
	<path fill="#F5F5F5" d="M84.493,11.829v76.342h-19.05v-40.93c0-5.909-0.142-9.461-0.424-10.656
		c-0.283-1.194-1.062-2.099-2.335-2.712c-1.272-0.612-4.11-0.919-8.511-0.919h-1.887v-8.9c9.211-1.982,16.205-6.058,20.984-12.225
		H84.493z"/>
</g>
</svg>
