<?xml version="1.0" encoding="utf-8"?>
<!-- Generator: Adobe Illustrator 16.0.0, SVG Export Plug-In . SVG Version: 6.00 Build 0)  -->
<!DOCTYPE svg PUBLIC "-//W3C//DTD SVG 1.1//EN" "http://www.w3.org/Graphics/SVG/1.1/DTD/svg11.dtd">
<svg version="1.1" id="_x32_" xmlns="http://www.w3.org/2000/svg" xmlns:xlink="http://www.w3.org/1999/xlink" x="0px" y="0px"
	 width="100px" height="100px" viewBox="0 0 100 100" enable-background="new 0 0 100 100" xml:space="preserve">
<text transform="matrix(1 0 0 1 138.5 50)" fill="#F5F5F5" font-family="'Impact'" font-size="96.5712">32</text>
<g>
	<path fill="#F5F5F5" d="M41.017,12.56v76.343h-19.05v-40.93c0-5.91-0.142-9.462-0.424-10.657c-0.283-1.194-1.062-2.098-2.335-2.711
		c-1.272-0.613-4.11-0.919-8.511-0.919H8.811v-8.9c9.211-1.982,16.205-6.057,20.984-12.225H41.017z"/>
	<path fill="#F5F5F5" d="M89.491,75.887v13.016h-41.92l0.012-10.893C60,57.703,67.38,45.135,69.723,40.31
		c2.341-4.825,3.513-8.589,3.513-11.293c0-2.075-0.354-3.623-1.063-4.645c-0.709-1.021-1.787-1.532-3.234-1.532
		c-1.448,0-2.526,0.566-3.234,1.697c-0.709,1.132-1.063,3.38-1.063,6.743v7.262h-17.07v-2.782c0-4.275,0.22-7.646,0.66-10.114
		c0.44-2.468,1.524-4.896,3.254-7.286c1.729-2.388,3.977-4.196,6.743-5.422c2.766-1.226,6.083-1.839,9.949-1.839
		c7.576,0,13.305,1.878,17.188,5.635c3.883,3.757,5.824,8.511,5.824,14.264c0,4.37-1.093,8.991-3.278,13.862
		c-2.186,4.873-8.622,15.217-19.311,31.027H89.491z"/>
</g>
</svg>
