<?xml version="1.0" encoding="utf-8"?>
<!-- Generator: Adobe Illustrator 16.0.0, SVG Export Plug-In . SVG Version: 6.00 Build 0)  -->
<!DOCTYPE svg PUBLIC "-//W3C//DTD SVG 1.1//EN" "http://www.w3.org/Graphics/SVG/1.1/DTD/svg11.dtd">
<svg version="1.1" id="_x32_" xmlns="http://www.w3.org/2000/svg" xmlns:xlink="http://www.w3.org/1999/xlink" x="0px" y="0px"
	 width="100px" height="100px" viewBox="0 0 100 100" enable-background="new 0 0 100 100" xml:space="preserve">
<text transform="matrix(1 0 0 1 138.5 50)" fill="#F5F5F5" font-family="'Impact'" font-size="96.5712">32</text>
<g>
	<path fill="#F5F5F5" d="M40.262,11.829v76.342H21.213v-40.93c0-5.91-0.143-9.461-0.424-10.656
		c-0.283-1.194-1.063-2.099-2.336-2.712c-1.271-0.612-4.109-0.919-8.51-0.919H8.057v-8.9c9.211-1.982,16.205-6.058,20.984-12.225
		H40.262z"/>
	<path fill="#F5F5F5" d="M86.521,11.829v49.889h5.422v13.015h-5.422v13.438H67.471V74.732H44.836V61.718l16.457-49.889H86.521z
		 M67.471,61.718V29.229l-8.416,32.489H67.471z"/>
</g>
</svg>
