<?xml version="1.0" encoding="utf-8"?>
<!-- Generator: Adobe Illustrator 16.0.0, SVG Export Plug-In . SVG Version: 6.00 Build 0)  -->
<!DOCTYPE svg PUBLIC "-//W3C//DTD SVG 1.1//EN" "http://www.w3.org/Graphics/SVG/1.1/DTD/svg11.dtd">
<svg version="1.1" id="_x32_" xmlns="http://www.w3.org/2000/svg" xmlns:xlink="http://www.w3.org/1999/xlink" x="0px" y="0px"
	 width="100px" height="100px" viewBox="0 0 100 100" enable-background="new 0 0 100 100" xml:space="preserve">
<text transform="matrix(1 0 0 1 138.5 50)" fill="#F5F5F5" font-family="'Impact'" font-size="96.5712">32</text>
<g>
	<path fill="#F5F5F5" d="M39.744,11.098V87.44H20.693v-40.93c0-5.91-0.141-9.462-0.424-10.657c-0.283-1.194-1.061-2.098-2.334-2.711
		s-4.111-0.92-8.512-0.92H7.537v-8.9c9.211-1.981,16.205-6.057,20.984-12.225H39.744z"/>
	<path fill="#F5F5F5" d="M88.736,11.098v12.213H65.113v12.968c2.955-3.489,6.758-5.234,11.41-5.234c5.25,0,9.219,1.47,11.908,4.409
		c2.688,2.939,4.031,8.59,4.031,16.952v10.893c0,5.407-0.26,9.376-0.779,11.906c-0.518,2.53-1.627,4.873-3.324,7.025
		c-1.697,2.154-4.063,3.805-7.096,4.951c-3.035,1.147-6.736,1.722-11.105,1.722c-4.904,0-9.227-0.857-12.967-2.57
		c-3.742-1.713-6.398-4.268-7.969-7.662c-1.572-3.396-2.357-8.645-2.357-15.75v-4.149h19.049v4.763c0,4.936,0.174,8.44,0.52,10.516
		c0.346,2.074,1.539,3.112,3.584,3.112c0.943,0,1.705-0.299,2.287-0.896c0.58-0.597,0.895-1.241,0.943-1.933
		c0.047-0.691,0.102-3.694,0.164-9.007V50.188c0-2.859-0.299-4.81-0.896-5.847c-0.598-1.038-1.588-1.556-2.971-1.556
		c-0.879,0-1.619,0.268-2.215,0.801c-0.598,0.535-0.984,1.108-1.156,1.722s-0.26,2.035-0.26,4.268H47.053l0.803-38.479H88.736z"/>
</g>
</svg>
