<?xml version="1.0" encoding="utf-8"?>
<!-- Generator: Adobe Illustrator 16.0.0, SVG Export Plug-In . SVG Version: 6.00 Build 0)  -->
<!DOCTYPE svg PUBLIC "-//W3C//DTD SVG 1.1//EN" "http://www.w3.org/Graphics/SVG/1.1/DTD/svg11.dtd">
<svg version="1.1" id="_x32_" xmlns="http://www.w3.org/2000/svg" xmlns:xlink="http://www.w3.org/1999/xlink" x="0px" y="0px"
	 width="100px" height="100px" viewBox="0 0 100 100" enable-background="new 0 0 100 100" xml:space="preserve">
<text transform="matrix(1 0 0 1 138.5 50)" fill="#F5F5F5" font-family="'Impact'" font-size="96.5712">32</text>
<g>
	<path fill="#F5F5F5" d="M39.531,11.853v76.342h-19.05v-40.93c0-5.909-0.142-9.461-0.424-10.656
		c-0.283-1.194-1.062-2.099-2.335-2.712c-1.272-0.612-4.11-0.919-8.511-0.919H7.325v-8.9c9.211-1.982,16.205-6.058,20.984-12.225
		H39.531z"/>
	<path fill="#F5F5F5" d="M92.675,32.129H73.624c0-3.553-0.04-5.792-0.117-6.72c-0.079-0.927-0.457-1.705-1.132-2.334
		c-0.677-0.629-1.597-0.943-2.759-0.943c-0.975,0-1.776,0.299-2.405,0.896c-0.629,0.597-0.99,1.367-1.084,2.311
		c-0.095,0.942-0.142,2.845-0.142,5.705V43.21c0.974-2.043,2.405-3.576,4.291-4.598s4.212-1.532,6.979-1.532
		c3.489,0,6.57,0.942,9.242,2.829c2.672,1.886,4.369,4.148,5.093,6.79c0.723,2.641,1.085,6.209,1.085,10.704v6.082
		c0,5.345-0.205,9.321-0.613,11.931c-0.409,2.609-1.502,5.021-3.277,7.237c-1.776,2.217-4.213,3.938-7.309,5.164
		c-3.097,1.226-6.704,1.839-10.822,1.839c-5.124,0-9.32-0.707-12.59-2.122s-5.793-3.449-7.568-6.106
		c-1.776-2.656-2.813-5.446-3.112-8.37c-0.299-2.923-0.447-8.598-0.447-17.022V45.473c0-9.084,0.133-15.159,0.4-18.225
		c0.267-3.064,1.359-5.965,3.277-8.7c1.917-2.734,4.534-4.786,7.851-6.153s7.145-2.051,11.482-2.051
		c5.344,0,9.729,0.864,13.156,2.593c3.426,1.729,5.878,4.166,7.355,7.31S92.675,27.351,92.675,32.129z M73.624,55.941
		c0-2.703-0.299-4.558-0.896-5.564c-0.598-1.006-1.572-1.509-2.924-1.509c-1.32,0-2.287,0.479-2.899,1.438
		c-0.613,0.959-0.92,2.837-0.92,5.635v13.815c0,3.364,0.29,5.564,0.872,6.602c0.582,1.038,1.548,1.557,2.9,1.557
		c0.816,0,1.666-0.401,2.546-1.203c0.88-0.801,1.32-2.962,1.32-6.483V55.941z"/>
</g>
</svg>
