<?xml version="1.0" encoding="utf-8"?>
<!-- Generator: Adobe Illustrator 16.0.0, SVG Export Plug-In . SVG Version: 6.00 Build 0)  -->
<!DOCTYPE svg PUBLIC "-//W3C//DTD SVG 1.1//EN" "http://www.w3.org/Graphics/SVG/1.1/DTD/svg11.dtd">
<svg version="1.1" id="_x32_" xmlns="http://www.w3.org/2000/svg" xmlns:xlink="http://www.w3.org/1999/xlink" x="0px" y="0px"
	 width="100px" height="100px" viewBox="0 0 100 100" enable-background="new 0 0 100 100" xml:space="preserve">
<g>
	<path fill="#F5F5F5" d="M39.531,11.805v76.342h-19.05v-40.93c0-5.91-0.142-9.461-0.424-10.657
		c-0.283-1.194-1.062-2.098-2.335-2.711c-1.272-0.613-4.11-0.919-8.511-0.919H7.325v-8.9c9.211-1.982,16.205-6.057,20.984-12.225
		H39.531z"/>
	<path fill="#F5F5F5" d="M46.936,67.871h19.05c0,3.553,0.047,5.793,0.142,6.72c0.094,0.928,0.479,1.705,1.155,2.334
		c0.676,0.629,1.595,0.943,2.759,0.943c0.974,0,1.775-0.299,2.404-0.896c0.629-0.597,0.982-1.367,1.062-2.311
		c0.077-0.942,0.117-2.845,0.117-5.705V56.79c-0.942,2.044-2.357,3.576-4.243,4.598c-1.887,1.021-4.229,1.532-7.026,1.532
		c-3.489,0-6.57-0.943-9.242-2.829s-4.37-4.149-5.093-6.79c-0.724-2.641-1.084-6.208-1.084-10.704v-6.083
		c0-5.344,0.212-9.32,0.636-11.93c0.425-2.609,1.517-5.022,3.277-7.238s4.197-3.937,7.31-5.163
		c3.111-1.226,6.727-1.839,10.845-1.839c5.093,0,9.273,0.707,12.543,2.122s5.8,3.451,7.592,6.106
		c1.792,2.657,2.829,5.446,3.112,8.37c0.283,2.923,0.425,8.582,0.425,16.975v10.609c0,9.086-0.126,15.16-0.378,18.226
		c-0.252,3.064-1.344,5.965-3.277,8.699c-1.933,2.735-4.55,4.786-7.851,6.154c-3.301,1.367-7.12,2.051-11.458,2.051
		c-5.376,0-9.77-0.865-13.18-2.594c-3.411-1.729-5.863-4.165-7.356-7.309C47.682,76.611,46.936,72.65,46.936,67.871z M65.985,44.059
		c0,3.206,0.416,5.187,1.25,5.941c0.832,0.755,1.689,1.132,2.569,1.132c1.32,0,2.287-0.479,2.9-1.438
		c0.612-0.958,0.919-2.837,0.919-5.635V30.243c0-3.364-0.291-5.564-0.872-6.602c-0.582-1.038-1.549-1.556-2.9-1.556
		c-0.817,0-1.666,0.401-2.546,1.202c-0.881,0.802-1.32,2.963-1.32,6.484V44.059z"/>
</g>
</svg>
