<?xml version="1.0" encoding="utf-8"?>
<!-- Generator: Adobe Illustrator 16.0.0, SVG Export Plug-In . SVG Version: 6.00 Build 0)  -->
<!DOCTYPE svg PUBLIC "-//W3C//DTD SVG 1.1//EN" "http://www.w3.org/Graphics/SVG/1.1/DTD/svg11.dtd">
<svg version="1.1" id="_x32_" xmlns="http://www.w3.org/2000/svg" xmlns:xlink="http://www.w3.org/1999/xlink" x="0px" y="0px"
	 width="100px" height="100px" viewBox="0 0 100 100" enable-background="new 0 0 100 100" xml:space="preserve">
<g>
	<path fill="#F5F5F5" d="M70.111,75.887v13.016h-41.92l0.012-10.893C40.619,57.703,48,45.135,50.342,40.31s3.514-8.589,3.514-11.293
		c0-2.075-0.355-3.623-1.063-4.645c-0.709-1.021-1.787-1.532-3.234-1.532c-1.449,0-2.527,0.566-3.234,1.697
		c-0.709,1.132-1.063,3.38-1.063,6.743v7.262h-17.07v-2.782c0-4.275,0.219-7.646,0.66-10.114c0.439-2.468,1.523-4.896,3.254-7.286
		c1.729-2.388,3.977-4.196,6.742-5.422s6.084-1.839,9.949-1.839c7.576,0,13.305,1.878,17.188,5.635
		c3.883,3.757,5.824,8.511,5.824,14.264c0,4.37-1.092,8.991-3.277,13.862c-2.186,4.873-8.623,15.217-19.311,31.027H70.111z"/>
</g>
</svg>
