<?xml version="1.0" encoding="utf-8"?>
<!-- Generator: Adobe Illustrator 16.0.0, SVG Export Plug-In . SVG Version: 6.00 Build 0)  -->
<!DOCTYPE svg PUBLIC "-//W3C//DTD SVG 1.1//EN" "http://www.w3.org/Graphics/SVG/1.1/DTD/svg11.dtd">
<svg version="1.1" id="_x32_" xmlns="http://www.w3.org/2000/svg" xmlns:xlink="http://www.w3.org/1999/xlink" x="0px" y="0px"
	 width="100px" height="100px" viewBox="0 0 100 100" enable-background="new 0 0 100 100" xml:space="preserve">
<text transform="matrix(1 0 0 1 138.5 50)" fill="#F5F5F5" font-family="'Impact'" font-size="96.5712">32</text>
<g>
	<path fill="#F5F5F5" d="M44.789,75.156v13.015H2.869l0.012-10.893c12.417-20.307,19.797-32.874,22.14-37.699
		c2.341-4.825,3.513-8.59,3.513-11.293c0-2.075-0.354-3.623-1.063-4.645c-0.709-1.021-1.787-1.532-3.234-1.532
		c-1.448,0-2.526,0.566-3.234,1.697c-0.709,1.132-1.063,3.38-1.063,6.743v7.262H2.869v-2.782c0-4.275,0.22-7.646,0.66-10.114
		c0.44-2.468,1.524-4.896,3.254-7.286c1.729-2.388,3.977-4.196,6.743-5.422c2.766-1.226,6.083-1.839,9.949-1.839
		c7.576,0,13.305,1.878,17.188,5.635c3.883,3.757,5.824,8.511,5.824,14.264c0,4.37-1.093,8.991-3.278,13.863
		c-2.186,4.873-8.622,15.216-19.311,31.027H44.789z"/>
	<path fill="#F5F5F5" d="M97.131,37.669v25.463c0,5.785-0.314,9.997-0.943,12.638s-1.934,5.108-3.914,7.403
		s-4.369,3.945-7.167,4.951c-2.799,1.006-5.926,1.509-9.384,1.509c-4.559,0-8.346-0.527-11.364-1.58
		c-3.018-1.053-5.423-2.695-7.214-4.928c-1.792-2.231-3.065-4.581-3.82-7.049c-0.754-2.468-1.131-6.39-1.131-11.766V37.669
		c0-7.01,0.604-12.26,1.815-15.75c1.209-3.489,3.614-6.287,7.214-8.393c3.6-2.106,7.961-3.159,13.086-3.159
		c4.18,0,7.921,0.73,11.222,2.192s5.769,3.246,7.403,5.352c1.635,2.106,2.742,4.479,3.324,7.12S97.131,31.885,97.131,37.669z
		 M78.08,31.256c0-4.056-0.196-6.594-0.589-7.616c-0.394-1.021-1.313-1.532-2.759-1.532c-1.414,0-2.351,0.542-2.806,1.626
		c-0.456,1.085-0.684,3.592-0.684,7.521v37.251c0,4.433,0.212,7.104,0.637,8.016c0.424,0.912,1.344,1.368,2.759,1.368
		c1.414,0,2.341-0.534,2.781-1.604c0.44-1.068,0.66-3.474,0.66-7.215V31.256z"/>
</g>
</svg>
