<?xml version="1.0" encoding="utf-8"?>
<!-- Generator: Adobe Illustrator 16.0.0, SVG Export Plug-In . SVG Version: 6.00 Build 0)  -->
<!DOCTYPE svg PUBLIC "-//W3C//DTD SVG 1.1//EN" "http://www.w3.org/Graphics/SVG/1.1/DTD/svg11.dtd">
<svg version="1.1" id="_x32_" xmlns="http://www.w3.org/2000/svg" xmlns:xlink="http://www.w3.org/1999/xlink" x="0px" y="0px"
	 width="100px" height="100px" viewBox="0 0 100 100" enable-background="new 0 0 100 100" xml:space="preserve">
<text transform="matrix(1 0 0 1 138.5 50)" fill="#F5F5F5" font-family="'Impact'" font-size="96.5712">32</text>
<g>
	<path fill="#F5F5F5" d="M44.601,75.156v13.015H2.681l0.012-10.893c12.417-20.307,19.797-32.874,22.14-37.7
		c2.341-4.825,3.513-8.589,3.513-11.293c0-2.075-0.354-3.623-1.063-4.645c-0.709-1.021-1.787-1.532-3.234-1.532
		c-1.448,0-2.526,0.566-3.234,1.697c-0.709,1.132-1.063,3.38-1.063,6.743v7.262H2.681v-2.782c0-4.275,0.22-7.646,0.66-10.114
		c0.44-2.468,1.524-4.896,3.254-7.286c1.729-2.388,3.977-4.196,6.743-5.422c2.766-1.226,6.083-1.839,9.949-1.839
		c7.576,0,13.305,1.878,17.188,5.635c3.883,3.757,5.824,8.511,5.824,14.264c0,4.37-1.093,8.991-3.278,13.863
		c-2.186,4.873-8.622,15.216-19.311,31.027H44.601z"/>
	<path fill="#F5F5F5" d="M93.594,11.829v12.213H69.97v12.967c2.955-3.489,6.759-5.234,11.411-5.234c5.25,0,9.219,1.47,11.907,4.409
		c2.688,2.94,4.031,8.59,4.031,16.952v10.893c0,5.407-0.26,9.376-0.778,11.906s-1.627,4.873-3.324,7.025
		c-1.697,2.154-4.063,3.805-7.097,4.951c-3.034,1.147-6.735,1.722-11.104,1.722c-4.904,0-9.227-0.857-12.968-2.57
		s-6.397-4.268-7.969-7.662c-1.572-3.396-2.357-8.645-2.357-15.75v-4.149h19.05v4.763c0,4.936,0.173,8.44,0.519,10.516
		c0.346,2.074,1.54,3.112,3.584,3.112c0.943,0,1.705-0.299,2.287-0.896c0.581-0.597,0.896-1.241,0.943-1.933
		c0.047-0.691,0.102-3.694,0.165-9.007V50.919c0-2.859-0.3-4.81-0.896-5.847c-0.598-1.038-1.588-1.556-2.971-1.556
		c-0.88,0-1.619,0.268-2.216,0.801c-0.598,0.535-0.983,1.108-1.155,1.722c-0.173,0.613-0.26,2.035-0.26,4.268H51.91l0.802-38.478
		H93.594z"/>
</g>
</svg>
