<?xml version="1.0" encoding="utf-8"?>
<!-- Generator: Adobe Illustrator 16.0.0, SVG Export Plug-In . SVG Version: 6.00 Build 0)  -->
<!DOCTYPE svg PUBLIC "-//W3C//DTD SVG 1.1//EN" "http://www.w3.org/Graphics/SVG/1.1/DTD/svg11.dtd">
<svg version="1.1" id="_x32_" xmlns="http://www.w3.org/2000/svg" xmlns:xlink="http://www.w3.org/1999/xlink" x="0px" y="0px"
	 width="100px" height="100px" viewBox="0 0 100 100" enable-background="new 0 0 100 100" xml:space="preserve">
<text transform="matrix(1 0 0 1 138.5 50)" fill="#F5F5F5" font-family="'Impact'" font-size="96.5712">32</text>
<g>
	<path fill="#F5F5F5" d="M44.719,75.156v13.015H2.799l0.012-10.893c12.416-20.307,19.797-32.874,22.139-37.699
		c2.342-4.826,3.514-8.59,3.514-11.293c0-2.075-0.355-3.623-1.063-4.645c-0.709-1.021-1.787-1.532-3.234-1.532
		c-1.449,0-2.527,0.566-3.234,1.697c-0.709,1.132-1.063,3.38-1.063,6.743v7.262H2.799v-2.782c0-4.275,0.219-7.646,0.66-10.114
		c0.439-2.468,1.523-4.896,3.254-7.286c1.729-2.388,3.977-4.196,6.742-5.422s6.084-1.839,9.949-1.839
		c7.576,0,13.305,1.878,17.188,5.635c3.883,3.757,5.824,8.511,5.824,14.264c0,4.37-1.092,8.991-3.277,13.863
		c-2.186,4.873-8.623,15.216-19.311,31.027H44.719z"/>
	<path fill="#F5F5F5" d="M88.479,44.86c2.797,1.132,4.951,2.823,6.459,5.071c1.51,2.249,2.264,7.604,2.264,16.064
		c0,6.165-0.598,10.71-1.791,13.635c-1.195,2.925-3.521,5.323-6.98,7.194c-3.457,1.872-8.094,2.808-13.91,2.808
		c-5.658,0-10.137-0.896-13.438-2.689s-5.668-4.167-7.098-7.124c-1.43-2.956-2.145-7.878-2.145-14.768
		c0-4.623,0.354-8.633,1.061-12.029s2.932-6.118,6.672-8.162c-2.357-1.131-4.125-2.93-5.305-5.396
		c-1.18-2.465-1.768-5.599-1.768-9.4c0-6.565,1.822-11.489,5.469-14.772s9.102-4.924,16.363-4.924c8.393,0,14.193,1.744,17.398,5.23
		c3.207,3.487,4.811,8.466,4.811,14.938c0,4.116-0.527,7.085-1.58,8.906C93.908,41.263,91.746,43.069,88.479,44.86z M78.15,60.209
		c0-2.924-0.299-4.864-0.895-5.824c-0.598-0.958-1.541-1.438-2.83-1.438c-1.258,0-2.162,0.464-2.711,1.391
		c-0.551,0.928-0.826,2.885-0.826,5.871v9.902c0,3.301,0.307,5.422,0.92,6.365s1.58,1.415,2.9,1.415
		c1.352,0,2.264-0.479,2.734-1.438c0.473-0.959,0.707-3.119,0.707-6.483V60.209z M77.773,28.474c0-2.577-0.229-4.283-0.684-5.116
		c-0.455-0.833-1.328-1.25-2.617-1.25c-1.258,0-2.105,0.448-2.545,1.344c-0.441,0.896-0.66,2.57-0.66,5.022v5.8
		c0,2.295,0.25,3.883,0.754,4.762c0.502,0.881,1.352,1.32,2.547,1.32c1.256,0,2.105-0.432,2.545-1.297
		c0.439-0.864,0.66-2.647,0.66-5.352V28.474z"/>
</g>
</svg>
