<?xml version="1.0" encoding="utf-8"?>
<!-- Generator: Adobe Illustrator 16.0.0, SVG Export Plug-In . SVG Version: 6.00 Build 0)  -->
<!DOCTYPE svg PUBLIC "-//W3C//DTD SVG 1.1//EN" "http://www.w3.org/Graphics/SVG/1.1/DTD/svg11.dtd">
<svg version="1.1" id="_x32_" xmlns="http://www.w3.org/2000/svg" xmlns:xlink="http://www.w3.org/1999/xlink" x="0px" y="0px"
	 width="100px" height="100px" viewBox="0 0 100 100" enable-background="new 0 0 100 100" xml:space="preserve">
<g>
	<path fill="#F5F5F5" d="M40.188,45.336c2.893,0.976,5.046,2.571,6.46,4.789c1.415,2.218,2.122,7.415,2.122,15.593
		c0,6.07-0.691,10.78-2.074,14.13c-1.384,3.35-3.772,5.896-7.168,7.643c-3.395,1.745-7.749,2.618-13.062,2.618
		c-6.035,0-10.774-1.014-14.217-3.041c-3.442-2.028-5.705-4.511-6.79-7.45s-1.627-8.04-1.627-15.302v-6.036h19.051v12.401
		c0,3.301,0.195,5.399,0.589,6.296c0.393,0.896,1.266,1.344,2.617,1.344c1.478,0,2.452-0.566,2.924-1.698
		c0.472-1.131,0.707-4.086,0.707-8.864v-5.281c0-2.924-0.33-5.062-0.99-6.413s-1.635-2.24-2.924-2.664
		c-1.289-0.425-3.788-0.668-7.497-0.731V41.587c4.526,0,7.324-0.172,8.394-0.519c1.068-0.345,1.839-1.1,2.311-2.263
		c0.472-1.163,0.707-2.986,0.707-5.47v-4.244c0-2.671-0.275-4.433-0.825-5.281c-0.551-0.849-1.407-1.273-2.57-1.273
		c-1.32,0-2.224,0.448-2.711,1.344c-0.488,0.896-0.73,2.806-0.73,5.729v6.271H3.832v-6.507c0-7.293,1.666-12.22,4.998-14.783
		c3.332-2.562,8.63-3.843,15.892-3.843c9.084,0,15.246,1.775,18.484,5.325c3.237,3.55,4.856,8.482,4.856,14.796
		c0,4.272-0.582,7.359-1.745,9.26C45.154,42.029,43.111,43.766,40.188,45.336z"/>
	<path fill="#F5F5F5" d="M96.678,75.585V88.6h-41.92l0.012-10.893c12.417-20.307,19.797-32.874,22.14-37.7
		c2.341-4.825,3.513-8.589,3.513-11.293c0-2.075-0.354-3.623-1.063-4.645c-0.709-1.021-1.787-1.532-3.234-1.532
		c-1.448,0-2.526,0.566-3.234,1.697c-0.709,1.132-1.063,3.38-1.063,6.743v7.262h-17.07v-2.782c0-4.275,0.22-7.646,0.66-10.114
		c0.44-2.468,1.524-4.896,3.254-7.286c1.729-2.388,3.977-4.196,6.743-5.422c2.766-1.226,6.083-1.839,9.949-1.839
		c7.576,0,13.305,1.878,17.188,5.635c3.883,3.757,5.824,8.511,5.824,14.264c0,4.37-1.093,8.991-3.278,13.863
		c-2.186,4.873-8.622,15.216-19.311,31.027H96.678z"/>
</g>
</svg>
