<?xml version="1.0" encoding="utf-8"?>
<!-- Generator: Adobe Illustrator 16.0.0, SVG Export Plug-In . SVG Version: 6.00 Build 0)  -->
<!DOCTYPE svg PUBLIC "-//W3C//DTD SVG 1.1//EN" "http://www.w3.org/Graphics/SVG/1.1/DTD/svg11.dtd">
<svg version="1.1" id="_x32_" xmlns="http://www.w3.org/2000/svg" xmlns:xlink="http://www.w3.org/1999/xlink" x="0px" y="0px"
	 width="100px" height="100px" viewBox="0 0 100 100" enable-background="new 0 0 100 100" xml:space="preserve">
<g>
	<path fill="#F5F5F5" d="M69.073,11.098v12.213H45.449v12.968c2.955-3.489,6.759-5.234,11.411-5.234c5.25,0,9.219,1.47,11.907,4.409
		c2.688,2.94,4.031,8.59,4.031,16.952v10.893c0,5.407-0.26,9.376-0.778,11.906s-1.627,4.873-3.324,7.025
		c-1.697,2.154-4.063,3.805-7.097,4.951c-3.034,1.147-6.735,1.722-11.104,1.722c-4.904,0-9.227-0.857-12.968-2.57
		s-6.397-4.268-7.969-7.662c-1.572-3.396-2.357-8.645-2.357-15.75v-4.149h19.05v4.763c0,4.936,0.173,8.44,0.519,10.516
		c0.346,2.074,1.54,3.112,3.584,3.112c0.943,0,1.705-0.299,2.287-0.896c0.581-0.597,0.896-1.241,0.943-1.933
		c0.047-0.691,0.102-3.694,0.165-9.007V50.188c0-2.859-0.3-4.81-0.896-5.847c-0.598-1.038-1.588-1.556-2.971-1.556
		c-0.88,0-1.619,0.268-2.216,0.801c-0.598,0.535-0.983,1.108-1.155,1.722c-0.173,0.613-0.26,2.035-0.26,4.268H27.39l0.802-38.479
		H69.073z"/>
</g>
</svg>
