<?xml version="1.0" encoding="utf-8"?>
<!-- Generator: Adobe Illustrator 16.0.0, SVG Export Plug-In . SVG Version: 6.00 Build 0)  -->
<!DOCTYPE svg PUBLIC "-//W3C//DTD SVG 1.1//EN" "http://www.w3.org/Graphics/SVG/1.1/DTD/svg11.dtd">
<svg version="1.1" id="_x32_" xmlns="http://www.w3.org/2000/svg" xmlns:xlink="http://www.w3.org/1999/xlink" x="0px" y="0px"
	 width="100px" height="100px" viewBox="0 0 100 100" enable-background="new 0 0 100 100" xml:space="preserve">
<g>
	<path fill="#F5F5F5" d="M72.869,32.129H53.818c0-3.553-0.039-5.792-0.117-6.72c-0.078-0.927-0.457-1.705-1.131-2.334
		c-0.678-0.629-1.598-0.943-2.76-0.943c-0.975,0-1.775,0.299-2.404,0.896c-0.629,0.597-0.99,1.367-1.084,2.311
		c-0.096,0.942-0.143,2.845-0.143,5.705V43.21c0.975-2.043,2.406-3.576,4.291-4.598c1.887-1.021,4.213-1.532,6.979-1.532
		c3.49,0,6.57,0.942,9.242,2.829c2.672,1.886,4.369,4.148,5.094,6.79c0.723,2.641,1.084,6.209,1.084,10.704v6.082
		c0,5.345-0.205,9.321-0.613,11.931s-1.502,5.021-3.277,7.237c-1.775,2.217-4.213,3.938-7.309,5.164
		c-3.096,1.226-6.703,1.839-10.822,1.839c-5.123,0-9.32-0.707-12.59-2.122s-5.793-3.449-7.568-6.106
		c-1.775-2.656-2.813-5.446-3.111-8.37c-0.299-2.923-0.447-8.598-0.447-17.022V45.473c0-9.084,0.133-15.159,0.4-18.225
		c0.266-3.064,1.359-5.965,3.277-8.7c1.916-2.734,4.533-4.786,7.85-6.153s7.145-2.051,11.482-2.051c5.344,0,9.73,0.864,13.156,2.593
		c3.426,1.729,5.879,4.166,7.355,7.31C72.131,23.39,72.869,27.351,72.869,32.129z M53.818,55.941c0-2.703-0.299-4.558-0.895-5.564
		c-0.598-1.006-1.572-1.509-2.924-1.509c-1.32,0-2.287,0.479-2.9,1.438s-0.92,2.837-0.92,5.635v13.815
		c0,3.364,0.291,5.564,0.873,6.602c0.582,1.038,1.547,1.557,2.9,1.557c0.816,0,1.666-0.401,2.545-1.203
		c0.881-0.801,1.32-2.962,1.32-6.483V55.941z"/>
</g>
</svg>
