<?xml version="1.0" encoding="utf-8"?>
<!-- Generator: Adobe Illustrator 16.0.0, SVG Export Plug-In . SVG Version: 6.00 Build 0)  -->
<!DOCTYPE svg PUBLIC "-//W3C//DTD SVG 1.1//EN" "http://www.w3.org/Graphics/SVG/1.1/DTD/svg11.dtd">
<svg version="1.1" id="_x32_" xmlns="http://www.w3.org/2000/svg" xmlns:xlink="http://www.w3.org/1999/xlink" x="0px" y="0px"
	 width="100px" height="100px" viewBox="0 0 100 100" enable-background="new 0 0 100 100" xml:space="preserve">
<text transform="matrix(1 0 0 1 138.5 50)" fill="#F5F5F5" font-family="'Impact'" font-size="96.5712">32</text>
<g>
	<path fill="#F5F5F5" d="M63.957,44.86c2.797,1.132,4.951,2.823,6.461,5.071c1.508,2.249,2.264,7.604,2.264,16.064
		c0,6.165-0.598,10.71-1.793,13.635s-3.521,5.323-6.979,7.194c-3.459,1.872-8.096,2.808-13.91,2.808
		c-5.658,0-10.139-0.896-13.439-2.689s-5.666-4.167-7.096-7.124c-1.432-2.956-2.146-7.878-2.146-14.768
		c0-4.623,0.354-8.633,1.061-12.029c0.709-3.396,2.932-6.118,6.674-8.162c-2.359-1.131-4.127-2.929-5.305-5.396
		c-1.18-2.466-1.77-5.599-1.77-9.4c0-6.565,1.822-11.489,5.471-14.772c3.646-3.283,9.1-4.924,16.361-4.924
		c8.395,0,14.193,1.744,17.4,5.23c3.207,3.487,4.811,8.466,4.811,14.938c0,4.116-0.527,7.085-1.58,8.906
		C69.387,41.263,67.227,43.07,63.957,44.86z M53.631,60.209c0-2.924-0.299-4.864-0.896-5.824c-0.598-0.958-1.541-1.438-2.828-1.438
		c-1.258,0-2.162,0.464-2.713,1.391c-0.549,0.928-0.824,2.885-0.824,5.871v9.902c0,3.301,0.307,5.422,0.92,6.365
		s1.578,1.415,2.898,1.415c1.352,0,2.264-0.479,2.736-1.438c0.471-0.959,0.707-3.119,0.707-6.483V60.209z M53.254,28.474
		c0-2.577-0.229-4.283-0.684-5.116c-0.457-0.833-1.33-1.25-2.617-1.25c-1.258,0-2.107,0.448-2.547,1.344
		c-0.441,0.896-0.66,2.57-0.66,5.022v5.8c0,2.295,0.252,3.883,0.754,4.763c0.504,0.88,1.352,1.32,2.547,1.32
		c1.258,0,2.105-0.432,2.547-1.297c0.439-0.864,0.66-2.648,0.66-5.352V28.474z"/>
</g>
</svg>
