<?xml version="1.0" encoding="utf-8"?>
<!-- Generator: Adobe Illustrator 16.0.0, SVG Export Plug-In . SVG Version: 6.00 Build 0)  -->
<!DOCTYPE svg PUBLIC "-//W3C//DTD SVG 1.1//EN" "http://www.w3.org/Graphics/SVG/1.1/DTD/svg11.dtd">
<svg version="1.1" id="_x32_" xmlns="http://www.w3.org/2000/svg" xmlns:xlink="http://www.w3.org/1999/xlink" x="0px" y="0px"
	 width="100px" height="100px" viewBox="0 0 100 100" enable-background="new 0 0 100 100" xml:space="preserve">
<text transform="matrix(1 0 0 1 138.5 50)" fill="#F5F5F5" font-family="'Impact'" font-size="96.5712">32</text>
<g>
	<path fill="#F5F5F5" d="M27.131,67.871H46.18c0,3.553,0.047,5.793,0.143,6.72c0.094,0.928,0.479,1.705,1.154,2.334
		s1.596,0.943,2.76,0.943c0.973,0,1.775-0.299,2.404-0.896c0.629-0.597,0.982-1.367,1.061-2.311
		c0.078-0.942,0.117-2.845,0.117-5.705V56.79c-0.941,2.044-2.357,3.576-4.242,4.598c-1.887,1.021-4.229,1.532-7.027,1.532
		c-3.488,0-6.57-0.943-9.242-2.829s-4.369-4.149-5.092-6.79c-0.725-2.641-1.084-6.208-1.084-10.704v-6.083
		c0-5.344,0.211-9.32,0.635-11.93c0.426-2.609,1.518-5.022,3.277-7.238c1.762-2.216,4.197-3.937,7.311-5.163
		c3.111-1.226,6.727-1.839,10.844-1.839c5.094,0,9.273,0.707,12.543,2.122s5.801,3.451,7.592,6.106
		c1.793,2.657,2.83,5.446,3.113,8.37c0.283,2.923,0.424,8.582,0.424,16.975v10.609c0,9.086-0.125,15.16-0.377,18.226
		c-0.252,3.064-1.344,5.965-3.277,8.699c-1.934,2.735-4.551,4.786-7.852,6.154c-3.301,1.367-7.119,2.051-11.457,2.051
		c-5.377,0-9.77-0.865-13.18-2.594c-3.412-1.729-5.863-4.165-7.357-7.309C27.877,76.611,27.131,72.65,27.131,67.871z M46.18,44.059
		c0,3.206,0.416,5.187,1.25,5.941c0.832,0.755,1.689,1.132,2.57,1.132c1.32,0,2.287-0.479,2.9-1.438
		c0.611-0.958,0.918-2.837,0.918-5.635V30.243c0-3.364-0.291-5.564-0.871-6.602c-0.582-1.038-1.549-1.556-2.9-1.556
		c-0.818,0-1.666,0.401-2.547,1.202c-0.881,0.802-1.32,2.963-1.32,6.484V44.059z"/>
</g>
</svg>
